<svg id="Layer_1" data-name="Layer 1" xmlns="http://www.w3.org/2000/svg" xmlns:xlink="http://www.w3.org/1999/xlink" viewBox="0 0 1118.71 650.25"><defs><clipPath id="clip-path" transform="translate(0 -98.23)"><path d="M922.62,586.94c152.41-81.88,196.12-340.1,27.91-390.64-168.21-50.18-209.61,107.28-285.6,107.25-76.53,0-104.73-81-205.75-81.25-101.32.26-222.53,79.1-182.4,249.6C317.17,642.22,770,669.38,922.62,586.94Z" fill="none"/></clipPath><linearGradient id="linear-gradient" x1="16.91" y1="-163.16" x2="16.91" y2="-162.16" gradientTransform="translate(-478.83 23206.8) scale(78 140)" gradientUnits="userSpaceOnUse"><stop offset="0" stop-color="#a7a7ee" stop-opacity="0"/><stop offset="1" stop-color="#403f9f" stop-opacity="0.3"/></linearGradient><linearGradient id="linear-gradient-2" x1="19.03" y1="-162.37" x2="19.03" y2="-161.37" gradientTransform="translate(-2640.83 16600.24) scale(190 100)" gradientUnits="userSpaceOnUse"><stop offset="0" stop-color="#403f9f" stop-opacity="0"/><stop offset="1" stop-opacity="0.2"/></linearGradient><linearGradient id="linear-gradient-3" x1="17.16" y1="-162.29" x2="17.16" y2="-161.29" gradientTransform="translate(-573.83 16149.64) scale(84 97)" xlink:href="#linear-gradient"/><linearGradient id="linear-gradient-4" x1="15.01" y1="-163.16" x2="15.01" y2="-162.16" gradientTransform="translate(35.17 23305.04) scale(51 140)" xlink:href="#linear-gradient-2"/><linearGradient id="linear-gradient-5" x1="15.32" y1="-157.56" x2="15.32" y2="-156.56" gradientTransform="translate(-13.83 6315.69) scale(54.04 36.41)" gradientUnits="userSpaceOnUse"><stop offset="0" stop-color="#403f9f" stop-opacity="0"/><stop offset="1" stop-opacity="0.1"/></linearGradient><linearGradient id="linear-gradient-6" x1="11.91" y1="-159.21" x2="11.91" y2="-158.21" gradientTransform="translate(484.92 8004.37) scale(32.63 46.61)" xlink:href="#linear-gradient-5"/><linearGradient id="linear-gradient-7" x1="18.87" y1="-162.47" x2="18.01" y2="-162.14" gradientTransform="translate(-1758.28 19688.12) scale(141.31 118.07)" gradientUnits="userSpaceOnUse"><stop offset="0" stop-opacity="0.5"/><stop offset="1" stop-color="#1f1845"/></linearGradient><linearGradient id="linear-gradient-8" x1="9.3" y1="-158.07" x2="9.3" y2="-157.07" gradientTransform="translate(670.8 6598.8) scale(25.02 39.02)" gradientUnits="userSpaceOnUse"><stop offset="0" stop-color="#c74d75" stop-opacity="0"/><stop offset="1" stop-color="#af3b6e" stop-opacity="0.05"/></linearGradient><linearGradient id="linear-gradient-9" x1="9.63" y1="-156.98" x2="9.13" y2="-157.98" gradientTransform="translate(670.8 6598.8) scale(25.02 39.02)" gradientUnits="userSpaceOnUse"><stop offset="0" stop-opacity="0.5"/><stop offset="1" stop-color="#ff6663" stop-opacity="0"/></linearGradient><linearGradient id="linear-gradient-10" x1="15.02" y1="-162.38" x2="15.02" y2="-161.38" gradientTransform="translate(275.87 16694.48) scale(51.13 100.57)" xlink:href="#linear-gradient"/><linearGradient id="linear-gradient-11" x1="18.43" y1="-163.15" x2="18.43" y2="-162.15" gradientTransform="translate(-1487.5 23214.34) scale(135.1 139.45)" xlink:href="#linear-gradient"/><linearGradient id="linear-gradient-12" x1="14.99" y1="-163.15" x2="14.99" y2="-162.15" gradientTransform="translate(171.17 23214.34) scale(50.88 139.45)" xlink:href="#linear-gradient-2"/><linearGradient id="linear-gradient-13" x1="18.36" y1="-162.21" x2="18.36" y2="-161.21" gradientTransform="translate(-1446.78 15756.74) scale(131.08 94.83)" xlink:href="#linear-gradient-8"/><linearGradient id="linear-gradient-14" x1="13.49" y1="-160.83" x2="13.49" y2="-159.83" gradientTransform="translate(423.57 10648.41) scale(39.98 64.15)" gradientUnits="userSpaceOnUse"><stop offset="0" stop-color="#c74d75" stop-opacity="0"/><stop offset="1" stop-color="#af3b6e" stop-opacity="0.1"/></linearGradient><linearGradient id="linear-gradient-15" x1="12.81" y1="-157.62" x2="13.81" y2="-158.46" gradientTransform="translate(435.96 6799.48) scale(39.39 40.82)" gradientUnits="userSpaceOnUse"><stop offset="0" stop-opacity="0.1"/><stop offset="1" stop-color="#ff6663" stop-opacity="0"/></linearGradient><linearGradient id="linear-gradient-16" x1="16.6" y1="-162.41" x2="16.6" y2="-161.43" gradientTransform="translate(-247.06 16883.61) scale(71.91 102.33)" xlink:href="#linear-gradient-8"/><linearGradient id="linear-gradient-17" x1="18.03" y1="-162.56" x2="18.03" y2="-161.56" gradientTransform="translate(-1084.48 17732.15) scale(113.43 107.58)" gradientUnits="userSpaceOnUse"><stop offset="0" stop-color="#1f1845" stop-opacity="0"/><stop offset="1" stop-opacity="0.2"/></linearGradient><linearGradient id="linear-gradient-18" x1="-8.73" y1="-135.49" x2="-9.73" y2="-134.49" gradientTransform="translate(1069.03 1487.97) scale(9.35 9.36)" gradientUnits="userSpaceOnUse"><stop offset="0" stop-opacity="0.2"/><stop offset="1" stop-color="#ff6663" stop-opacity="0"/></linearGradient><linearGradient id="linear-gradient-19" x1="16.36" y1="-156.21" x2="15.72" y2="-155.44" gradientTransform="translate(-75.86 5315.63) scale(63.35 32.18)" xlink:href="#linear-gradient-15"/></defs><g id="Group_31" data-name="Group 31"><rect id="Rectangle" y="397.25" width="1108" height="253" fill="#3a199b"/><g id="Aquarium"><g id="Bg-2"><path id="Bg-3" d="M922.62,586.94c152.41-81.88,196.12-340.1,27.91-390.64-168.21-50.18-209.61,107.28-285.6,107.25-76.53,0-104.73-81-205.75-81.25-101.32.26-222.53,79.1-182.4,249.6C317.17,642.22,770,669.38,922.62,586.94Z" transform="translate(0 -98.23)" fill="#451cc0"/><g clip-path="url(#clip-path)"><g id="Bg-4"><path id="Flowers" d="M358.57,565.55c18.63,0,79.15-60.65,73.34-100.11-8.92-63.14-57.83,34.16-75.29,20.8-17.25-13.3,71.22-69.75,45.44-100.76-26-30.84-74.19,89.95-56.47,24.7,17.44-64.45,11.08-113.62-22.72-107.91-34,5.55-33.38,73.9-5.19,113.11,28,38.87-49.3-23.81-61.67,9.75-13.24,34.32,67.65,44.87,59.72,68.26-8.46,22.87-40.5-26.16-63.61-5.2C228.83,508.82,339.82,565.55,358.57,565.55Z" transform="translate(0 -98.23)" fill="#e2eaf5"/></g></g></g><path id="Detail" d="M334.07,548.92q85.29-76.8,163-43.8c111.1,47.33,181.82,128.66,334.2,53.82q94.71-46.8,165.65-35.47c-20.36,25.48-45.3,47.24-74.15,62.7C797.39,653.74,469.52,647.52,334.07,548.92Z" transform="translate(0 -98.23)" fill="#3a199b"/><path id="Flowers-2" d="M693.89,560.12c-.57-47.85,9.2-116.32,23.94-105.59,25.8,18.32,30.32,69.58-3.24,136.92-5,10.06-9,13.56-12.06,12.32-1.7.88-4.68-.57-9.27-5.15-34-34.16-42.09-67-31-84.76C667.92,505.45,683.38,533.21,693.89,560.12Z" transform="translate(0 -98.23)" fill="#3e1ba8"/><path id="Flower" d="M870.17,606.76c-193-123-29.54-163.36-17.53-188.75,12.45-25.78-63.93-84.52-39-118.7,24.77-32.33,90.58,15.58,90.94-22.7-.36-38.38-59.88-48.92-79.89-114.81-18.14-65.9,106.5-98.75,137.7-7.14,30.35,91-19.28,129.92,18.83,134.92,38.38,6.66,81.72-12.63,86.39,29.19,3.78,42.54-105.64,67.78-105.22,107C961.94,463.7,1101.62,555.38,870.17,606.76Z" transform="translate(0 -98.23)" fill="#7556d4"/><path id="Bg-5" d="M601,204.12c12.66,46,58.23,65.85,76.71,51.41,18.22-15,8.43-55.7-9.67-77.76C649.4,156.05,587.93,157.48,601,204.12Z" transform="translate(0 -98.23)" fill="#451cc0"/><path id="Flowers-3" d="M839.73,514.71c4-6.74,11.19-14.85,20.26-22.51,17.18-14.47,34.69-21.82,39.18-16.43s-5.75,21.5-22.89,36c-13.9,11.73-28.07,18.78-35.33,18.16-.08,20.12-7.57,38.48-24.49,56.42l-2.35-2.23c16.45-17.44,23.61-35.11,23.61-54.52v-.8a3.17,3.17,0,0,1-.34-.3c-3.59,5.9-22.09,2.07-41.53-8.64s-32.7-24.47-29.3-30.55,22-2.28,41.6,8.5c14,7.72,24.72,16.92,28.43,23.76.16-.54.35-1.11.58-1.7A119.63,119.63,0,0,0,834,503.4c-1.88-7.32-4-13.68-8.22-25.77-4.87-13.8-6.44-18.49-8.3-25.39-.14-.5-.27-1-.4-1.49-4,5.5-22.21,1.62-41.34-8.92-19.58-10.78-32.7-24.46-29.3-30.55s22-2.28,41.6,8.5c12.46,6.87,22.3,14.9,26.94,21.4a81.18,81.18,0,0,1-1.32-14.09A140.22,140.22,0,0,1,818.39,392c1.36-5.35,2.8-10.24,4.79-16.22-6.59,1-18.73-12-28.16-30.63-10.07-19.85-13.22-38.52-7-41.68s19.36,10.36,29.43,30.22c5.68,11.19,9.16,22,10,29.88l1.27-3.55c3.43-9.51,4-11.06,5.36-15.1a205,205,0,0,0,7.23-25.64c-5.92-3.38-10.41-20-10.41-40,0-22.44,5.65-40.64,12.64-40.64s12.63,18.14,12.63,40.58c0,21.39-5.14,38.93-11.67,40.52A208.57,208.57,0,0,1,837.14,346c-1.39,4.06-1.94,5.61-5.38,15.15l-.55,1.53c5.12-5.53,12.8-11.65,22-17.14,19.18-11.47,37.65-15.92,41.25-9.95s-9,20.1-28.2,31.57c-18,10.74-35.33,15.33-40.4,10.94-1.75,5.34-3.07,9.85-4.31,14.73A136.66,136.66,0,0,0,816.94,427a77,77,0,0,0,1.1,12.59c3.55-7.24,11.44-16.65,21.88-25.46,17.14-14.47,34.68-21.82,39.18-16.43s-5.74,21.49-22.89,36c-14,11.79-28.2,18.85-35.43,18.14,1.78,6.53,3.38,11.28,8.09,24.65,4.3,12.18,6.4,18.61,8.31,26,1.09,4.22,2,8.26,2.58,12.18Z" transform="translate(0 -98.23)" fill="#3e1ba8"/></g><path id="Path_4" data-name="Path 4" d="M1039.47,304.87S906.24,72.69,810,237.54C722.48,387.38,603.6,318.63,582.91,305c-2.31-1.52-3.43-2.35-3.43-2.35S263.54,65.47,116,292.77" transform="translate(0 -98.23)" fill="none" stroke="#ff7d3b" stroke-miterlimit="10" stroke-width="2"/><g id="Man_and_Macbook" data-name="Man and Macbook"><path id="Sh" d="M784.58,562.36c-103.26,36.62-56.7,99.25,43.06,99.25s275.78-20.86,290.44-60S887.84,525.75,784.58,562.36Z" transform="translate(0 -98.23)" fill="#35188e"/><g id="Detail-2"><rect id="Detail-3" x="801" y="365.24" width="78" height="140" fill="#a7a7ee"/><rect id="Detail-4" x="801" y="365.24" width="78" height="140" fill="url(#linear-gradient)"/></g><g id="Detail-5"><path id="Detail-6" d="M929,363.47h90a50,50,0,0,1,50,50h0v50H879v-50A50,50,0,0,1,929,363.47Z" transform="translate(0 -98.23)" fill="#403f9f"/><path id="Detail-7" d="M929,363.47h90a50,50,0,0,1,50,50h0v50H879v-50A50,50,0,0,1,929,363.47Z" transform="translate(0 -98.23)" fill="url(#linear-gradient-2)"/></g><path id="Blouse" d="M929.55,438.49c15.27-28.08,28-61.36,16.43-61.36-19.76,0-32.31,10.38-38.6,32.49-2.16,7.61-3.89,15.11-5.28,21.79a46,46,0,0,0,13.59,5.16A134.63,134.63,0,0,0,929.55,438.49Z" transform="translate(0 -98.23)" fill="#f2f5f9"/><g id="Detail-8"><rect id="Detail-9" x="826" y="408.25" width="84" height="97" fill="#a7a7ee"/><rect id="Detail-10" x="826" y="408.25" width="84" height="97" fill="url(#linear-gradient-3)"/></g><g id="Detail-11"><path id="Detail-12" d="M800.5,463.47h0A25.5,25.5,0,0,1,826,489v114.5H777.55a2.55,2.55,0,0,1-2.55-2.55h0V489A25.5,25.5,0,0,1,800.5,463.47Z" transform="translate(0 -98.23)" fill="#403f9f"/><path id="Detail-13" d="M800.5,463.47h0A25.5,25.5,0,0,1,826,489v114.5H777.55a2.55,2.55,0,0,1-2.55-2.55h0V489A25.5,25.5,0,0,1,800.5,463.47Z" transform="translate(0 -98.23)" fill="url(#linear-gradient-4)"/></g><g id="Leg_L" data-name="Leg L"><path id="Leg_L-2" data-name="Leg L-2" d="M791.51,617.33c-10.68-4.42-1.32-19.41,9.37-21.05,10.77-1.8,17.77-3.74,17.59-11.11.18-7.27,20.22-1.59,20.51,1.75-.29,3.63,4.32,16,0,18.13C834.07,607.12,802.29,621.37,791.51,617.33Z" transform="translate(0 -98.23)" fill="#1f1845"/><path id="Leg_L-3" data-name="Leg L-3" d="M791.51,617.33c-10.68-4.42-1.32-19.41,9.37-21.05,10.77-1.8,17.77-3.74,17.59-11.11.18-7.27,20.22-1.59,20.51,1.75-.29,3.63,4.32,16,0,18.13C834.07,607.12,802.29,621.37,791.51,617.33Z" transform="translate(0 -98.23)" fill="url(#linear-gradient-5)"/></g><g id="Leg_R" data-name="Leg R"><path id="Leg_R-2" data-name="Leg R-2" d="M858.63,585.38c2.74,1.2,6.33,1.8,11,1.76a25.53,25.53,0,0,0,8.72-1.17c.19,5.23,1.06,9,7,15.3,7.47,7.46,6.34,27.57-7,30.6-13.09,2.06-22.25-23.14-20.92-33A36.35,36.35,0,0,0,858.63,585.38Z" transform="translate(0 -98.23)" fill="#1f1845"/><path id="Leg_R-3" data-name="Leg R-3" d="M858.63,585.38c2.74,1.2,6.33,1.8,11,1.76a25.53,25.53,0,0,0,8.72-1.17c.19,5.23,1.06,9,7,15.3,7.47,7.46,6.34,27.57-7,30.6-13.09,2.06-22.25-23.14-20.92-33A36.35,36.35,0,0,0,858.63,585.38Z" transform="translate(0 -98.23)" fill="url(#linear-gradient-6)"/></g><g id="Leg_L-4" data-name="Leg L-4"><path id="Leg_L-5" data-name="Leg L-5" d="M899.62,470.12c-25.74,0-100.45-1.42-109.87,16s17.3,95.86,17.3,99.43,30.66,2.52,35.92,2.52-16-71.9-13.25-76,90.56,2.38,97.15-10S925.37,470.12,899.62,470.12Z" transform="translate(0 -98.23)" fill="#1f1845"/><path id="Leg_L-6" data-name="Leg L-6" d="M899.62,470.12c-25.74,0-100.45-1.42-109.87,16s17.3,95.86,17.3,99.43,30.66,2.52,35.92,2.52-16-71.9-13.25-76,90.56,2.38,97.15-10S925.37,470.12,899.62,470.12Z" transform="translate(0 -98.23)" fill="none"/><path id="Leg_L-7" data-name="Leg L-7" d="M899.62,470.12c-25.74,0-100.45-1.42-109.87,16s17.3,95.86,17.3,99.43,30.66,2.52,35.92,2.52-16-71.9-13.25-76,90.56,2.38,97.15-10S925.37,470.12,899.62,470.12Z" transform="translate(0 -98.23)" fill="url(#linear-gradient-7)"/></g><g id="Leg_R-4" data-name="Leg R-4"><path id="Leg_R-5" data-name="Leg R-5" d="M951.94,475.05c-25.78,0-73-8.66-82.44,8.71s-16.68,97.47-16.68,101,28.5,6.15,33.77,6.15,16.14-77.45,24.22-80.4,67.66,12.43,74.26,0S977.72,475.05,951.94,475.05Z" transform="translate(0 -98.23)" fill="#1f1845"/><path id="Leg_R-6" data-name="Leg R-6" d="M951.94,475.05c-25.78,0-73-8.66-82.44,8.71s-16.68,97.47-16.68,101,28.5,6.15,33.77,6.15,16.14-77.45,24.22-80.4,67.66,12.43,74.26,0S977.72,475.05,951.94,475.05Z" transform="translate(0 -98.23)" fill="none"/></g><path id="Blouse-2" d="M962.64,379h22.87c21.3,0,17.69,22.18,17.69,43.54s-10.12,52.22-10.12,52.22L915.17,474s-.28-31.66,2.34-52.3S934.44,379,962.64,379Z" transform="translate(0 -98.23)" fill="#f2f5f9"/><g id="Hand_L" data-name="Hand L"><path id="Hand_L-2" data-name="Hand L-2" d="M897.48,455.12c.8-1.84,2.22-11.5,4.85-24.1a39.93,39.93,0,0,0,13.46,5.1l.25.05q-.69,10.06-.88,22c-5.11,1-9.61,2.09-11.58,3.11-1.56.82-7.07,5.4-9.21,8.73L891,456.33C894.73,456.12,897.17,455.78,897.48,455.12Z" transform="translate(0 -98.23)" fill="#ff7d3b"/><path id="Hand_L-3" data-name="Hand L-3" d="M897.48,455.12c.8-1.84,2.22-11.5,4.85-24.1a39.93,39.93,0,0,0,13.46,5.1l.25.05q-.69,10.06-.88,22c-5.11,1-9.61,2.09-11.58,3.11-1.56.82-7.07,5.4-9.21,8.73L891,456.33C894.73,456.12,897.17,455.78,897.48,455.12Z" transform="translate(0 -98.23)" fill="url(#linear-gradient-8)"/><path id="Hand_L-4" data-name="Hand L-4" d="M897.48,455.12c.8-1.84,2.22-11.5,4.85-24.1a39.93,39.93,0,0,0,13.46,5.1l.25.05q-.69,10.06-.88,22c-5.11,1-9.61,2.09-11.58,3.11-1.56.82-7.07,5.4-9.21,8.73L891,456.33C894.73,456.12,897.17,455.78,897.48,455.12Z" transform="translate(0 -98.23)" fill="url(#linear-gradient-9)"/></g><g id="Macbook"><path id="Detail-14" d="M799.59,409.67h76.67l17.52,71.59H811.05a1.74,1.74,0,0,1-1.7-1.34l-15.43-63a5.84,5.84,0,0,1,4.3-7A6.47,6.47,0,0,1,799.59,409.67Z" transform="translate(0 -98.23)" fill="#d6dfea"/><ellipse id="Logo" cx="841.22" cy="347.53" rx="5.26" ry="5.24" fill="#f2f5f9"/><path id="Detail-15" d="M894.57,472.53h51.49a4.37,4.37,0,0,1,0,8.73H889.7v-4.78l-15.67-64a2.3,2.3,0,0,1,1.7-2.76h0a1.88,1.88,0,0,1,.53-.07,3.72,3.72,0,0,1,3.61,2.83Z" transform="translate(0 -98.23)" fill="#b6c5d9"/></g><g id="Detail-16"><path id="Detail-17" d="M1018.3,463.59v-75a25.57,25.57,0,0,1,51.14,0v75Z" transform="translate(0 -98.23)" fill="#a7a7ee"/><path id="Detail-18" d="M1018.3,463.59v-75a25.57,25.57,0,0,1,51.14,0v75Z" transform="translate(0 -98.23)" fill="url(#linear-gradient-10)"/></g><g id="Detail-19"><g id="Detail-20"><path id="Detail-21" d="M934.34,463.59h135.1V593a10,10,0,0,1-10,10H934.34Z" transform="translate(0 -98.23)" fill="#a7a7ee"/><path id="Detail-22" d="M934.34,463.59h135.1V593a10,10,0,0,1-10,10H934.34Z" transform="translate(0 -98.23)" fill="url(#linear-gradient-11)"/></g><g id="Detail-23"><path id="Detail-24" d="M934,463.59h0A25.44,25.44,0,0,1,959.48,489h0V603H908.6V489A25.44,25.44,0,0,1,934,463.59Z" transform="translate(0 -98.23)" fill="#403f9f"/><path id="Detail-25" d="M934,463.59h0A25.44,25.44,0,0,1,959.48,489h0V603H908.6V489A25.44,25.44,0,0,1,934,463.59Z" transform="translate(0 -98.23)" fill="url(#linear-gradient-12)"/></g></g><g id="Hand_R" data-name="Hand R"><path id="Hand_R-2" data-name="Hand R-2" d="M915.27,473.22h-20l-.56-2.3c2.14-3.36,7.67-8,9.23-8.82,5.73-3,32.77-6.52,34.34-7,15.82-1.67,23.08-3.19,55.3-4.68,0-8.56-18-71.38-8.15-71.41,9.55,0,34.37.09,37.25,29.27s8.95,66.22-11.64,65.55c-12.54.21-47-7.72-65.27-10H935.17A25.42,25.42,0,0,0,915.27,473.22Z" transform="translate(0 -98.23)" fill="#ff7d3b"/><path id="Hand_R-3" data-name="Hand R-3" d="M915.27,473.22h-20l-.56-2.3c2.14-3.36,7.67-8,9.23-8.82,5.73-3,32.77-6.52,34.34-7,15.82-1.67,23.08-3.19,55.3-4.68,0-8.56-18-71.38-8.15-71.41,9.55,0,34.37.09,37.25,29.27s8.95,66.22-11.64,65.55c-12.54.21-47-7.72-65.27-10H935.17A25.42,25.42,0,0,0,915.27,473.22Z" transform="translate(0 -98.23)" fill="url(#linear-gradient-13)"/></g><path id="Blouse-3" d="M991.31,438.41c-4.48-20.67-14.15-59.4-6.26-59.42,9.74,0,35,.09,38,29.15.89,8.84,2.08,18.4,2.72,27.42.1,1.4-4.92,3.93-17.24,4.64S991.31,438.41,991.31,438.41Z" transform="translate(0 -98.23)" fill="#f2f5f9"/><g id="Nack"><g id="Nack-2"><path id="Nack-3" d="M945.35,333.44H983l-2.35,45.48a19.27,19.27,0,0,1-19.4,18.67A18,18,0,0,1,943,379.82v-.9Z" transform="translate(0 -98.23)" fill="#ff7d3b"/><path id="Nack-4" d="M945.35,333.44H983l-2.35,45.48a19.27,19.27,0,0,1-19.4,18.67A18,18,0,0,1,943,379.82v-.9Z" transform="translate(0 -98.23)" fill="url(#linear-gradient-14)"/></g><path id="Sh-2" d="M981.8,356.18c-7.74,10.76-21.27,18.08-30,18.08a25.83,25.83,0,0,1-8.23-1.75l1.76-39.07H983Z" transform="translate(0 -98.23)" fill="url(#linear-gradient-15)"/></g><g id="Face"><g id="Face-2"><path id="Face-3" d="M946.93,266.44a36,36,0,0,1,36,36v30.41c0,19.86-23.55,36-36,36s-36-16.1-36-36c0,0,1.76-13.76,1.76-14.8s-1.76-15.61-1.76-15.61a36,36,0,0,1,36-36Z" transform="translate(0 -98.23)" fill="#ff7d3b"/><path id="Face-4" d="M946.93,266.44a36,36,0,0,1,36,36v30.41c0,19.86-23.55,36-36,36s-36-16.1-36-36c0,0,1.76-13.76,1.76-14.8s-1.76-15.61-1.76-15.61a36,36,0,0,1,36-36Z" transform="translate(0 -98.23)" fill="url(#linear-gradient-16)"/></g><g id="Hair"><path id="Hair-2" d="M982.78,347.12l.69-13.45-.59-10a19.33,19.33,0,0,1-9.36-21.55h-.87a19,19,0,0,1-18.89-16.91,21.92,21.92,0,0,1-23.52-2.57,12,12,0,0,1-12.67-1,35.82,35.82,0,0,0-6,14.16,21.64,21.64,0,0,1,11.93-38,22,22,0,0,1,28.31-12.68,23.9,23.9,0,0,1,3,1.38,26.6,26.6,0,0,1,44.44,18A22.23,22.23,0,0,1,1011,302a19.33,19.33,0,0,1-7.32,20.4,20.86,20.86,0,0,1,.33,3.7c0,11.46-9.74,20.79-21.15,21Z" transform="translate(0 -98.23)" fill="#1f1845"/><path id="Hair-3" d="M982.78,347.12l.69-13.45-.59-10a19.33,19.33,0,0,1-9.36-21.55h-.87a19,19,0,0,1-18.89-16.91,21.92,21.92,0,0,1-23.52-2.57,12,12,0,0,1-12.67-1,35.82,35.82,0,0,0-6,14.16,21.64,21.64,0,0,1,11.93-38,22,22,0,0,1,28.31-12.68,23.9,23.9,0,0,1,3,1.38,26.6,26.6,0,0,1,44.44,18A22.23,22.23,0,0,1,1011,302a19.33,19.33,0,0,1-7.32,20.4,20.86,20.86,0,0,1,.33,3.7c0,11.46-9.74,20.79-21.15,21Z" transform="translate(0 -98.23)" fill="url(#linear-gradient-17)"/></g><g id="Ear"><path id="Ear-2" d="M978.79,337.77c-7.24-.12-6.78-26.43,0-26.31a12.94,12.94,0,0,1,12.86,12.87C991.52,332.12,985.68,337.9,978.79,337.77Z" transform="translate(0 -98.23)" fill="#ff6663"/><circle id="Sh-3" cx="980.54" cy="226.68" r="4.68" fill="url(#linear-gradient-18)"/></g><path id="Sh-4" d="M974.32,313.79h-1.67a19,19,0,0,1-18.89-16.9,22,22,0,0,1-23.52-2.57,12,12,0,0,1-12.67-1,35.82,35.82,0,0,0-6,14.16c-.17-1.53-.37-3.22-.6-5.08a35.85,35.85,0,0,1,6.6-20.77,12,12,0,0,0,12.67,1,21.92,21.92,0,0,0,23.52,2.57,19,19,0,0,0,18.89,16.92h.87a15.2,15.2,0,0,0,0,4.76A59.17,59.17,0,0,0,974.32,313.79Z" transform="translate(0 -98.23)" fill="url(#linear-gradient-19)"/></g><path id="Line" d="M915.11,458.94q.27-21.68,1.86-37.18" transform="translate(0 -98.23)" fill="none" stroke="#fff" stroke-linecap="round" stroke-linejoin="round" stroke-width="2"/><g id="Line-2"><path id="Line-3" d="M993.17,449.62c0-3.34-2.76-15-5.54-27.86" transform="translate(0 -98.23)" fill="none"/><path id="Line-4" d="M993.17,449.62c0-3.34-2.76-15-5.54-27.86" transform="translate(0 -98.23)" fill="none" stroke="#fff" stroke-linecap="round" stroke-linejoin="round" stroke-width="2"/></g></g><path id="Triangle" d="M890.38,169.12,866.3,186.6,862.78,158Z" transform="translate(0 -98.23)" fill="#ff7d3b"/><ellipse id="Oval" cx="677.5" cy="240.25" rx="8.5" ry="9" fill="#ff7d3b"/><path id="Path_5" data-name="Path 5" d="M1069.44,256.28s-212-203.6-306.27-12.55C676.61,419.12,595,377.06,584.47,365.37A152.59,152.59,0,0,1,562,339.32c-23.44-35-63.82-92.57-113-81.68C375.89,273.85,325.92,653.55,93,334.8" transform="translate(0 -98.23)" fill="none" stroke="#fff" stroke-miterlimit="10" stroke-width="2" opacity="0.26" style="isolation:isolate"/><g id="_" data-name=" "><text transform="translate(751.69 281.25)" font-size="39" fill="#ff7d3b" font-family="Lato-Regular, Lato" letter-spacing="0.01em" style="isolation:isolate">$</text></g><g id="_2" data-name=" 2"><text transform="translate(726.78 126.25)" font-size="28" fill="#fff" font-family="Lato-Regular, Lato" letter-spacing="0.01em" style="isolation:isolate">%</text></g><g id="Oval-2"><ellipse cx="678" cy="361.75" rx="9" ry="9.5" fill="none"/><ellipse cx="678" cy="361.75" rx="8" ry="8.5" fill="none" stroke="#7556d4" stroke-miterlimit="10" stroke-width="2"/></g></g></svg>